<?xml version="1.0" standalone="no"?>
<!DOCTYPE svg PUBLIC "-//W3C//DTD SVG 20010904//EN"
 "http://www.w3.org/TR/2001/REC-SVG-20010904/DTD/svg10.dtd">
<svg version="1.0" xmlns="http://www.w3.org/2000/svg"
 width="56.000000pt" height="28.000000pt" viewBox="0 0 222.000000 110.000000"
 preserveAspectRatio="xMidYMid meet">

<g transform="translate(0.000000,110.000000) scale(0.100000,-0.100000)"
fill="#000000" stroke="none">
<path d="M460 956 c0 -9 5 -16 10 -16 6 0 10 4 10 9 0 6 -4 13 -10 16 -5 3
-10 -1 -10 -9z"/>
<path d="M718 963 c-16 -2 -28 -8 -28 -12 0 -5 -9 -11 -21 -14 -16 -4 -18 -3
-9 8 9 11 3 11 -32 4 -56 -12 -88 -29 -88 -47 0 -10 -8 -9 -34 7 -30 19 -34
19 -40 5 -11 -29 -6 -44 19 -56 25 -11 24 -34 -1 -24 -8 3 -14 -1 -14 -9 0
-16 -57 -30 -97 -22 -36 7 -57 -2 -43 -18 8 -10 2 -14 -25 -19 -20 -4 -44 -10
-52 -13 -11 -4 -14 -2 -9 5 4 7 1 12 -7 12 -8 0 -18 -7 -21 -15 -5 -13 -10
-14 -28 -4 -16 9 -23 9 -26 0 -2 -6 -13 -11 -25 -11 -16 0 -18 3 -9 9 9 6 0
13 -32 23 -37 12 -44 13 -35 2 9 -11 6 -14 -15 -14 l-26 0 23 -26 c15 -18 22
-39 22 -67 0 -28 4 -41 13 -39 6 1 12 -2 12 -8 0 -5 -6 -10 -12 -11 -7 0 -3
-5 10 -11 25 -12 31 -44 7 -34 -9 3 -15 0 -15 -9 0 -8 3 -14 7 -13 13 4 73
-24 73 -33 0 -5 -6 -6 -14 -3 -8 3 -16 -4 -19 -17 -6 -23 7 -49 25 -49 17 0
38 -28 38 -50 0 -18 3 -19 22 -9 17 9 20 9 15 -3 -3 -8 -1 -21 5 -29 8 -11 9
-11 5 3 -8 24 12 28 94 16 41 -5 91 -9 112 -9 20 1 37 -2 37 -8 0 -5 -31 -9
-70 -8 -67 2 -72 0 -94 -28 -23 -28 -23 -30 -6 -42 11 -7 32 -15 48 -17 16 -2
35 -7 42 -11 7 -4 71 -9 142 -11 122 -3 133 -5 181 -32 81 -45 92 -48 314 -81
70 -11 142 -22 158 -26 l30 -6 -35 21 -35 21 40 -7 c22 -3 49 -7 60 -9 11 -1
49 -7 85 -13 102 -17 125 -18 123 -6 -1 8 11 9 37 4 22 -4 40 -4 40 0 0 4 48
11 108 15 105 7 286 51 322 79 8 7 28 18 44 26 39 20 71 62 105 140 67 149 75
218 37 302 -27 61 -71 98 -136 117 -25 7 -80 26 -123 42 -43 16 -87 29 -97 29
-11 0 -24 8 -29 18 -6 9 -11 12 -11 6 0 -8 -18 -10 -52 -8 -80 7 -98 13 -124
41 -18 20 -27 23 -37 14 -8 -6 -17 -8 -20 -5 -3 3 -12 2 -19 -2 -19 -12 -37
-16 -98 -18 -48 -2 -121 9 -95 14 6 1 -42 10 -105 20 -89 14 -128 15 -173 8
-49 -9 -61 -8 -76 6 -10 9 -35 16 -58 16 -50 0 -104 -10 -99 -19 2 -3 -9 -6
-24 -6 -19 0 -25 3 -19 11 8 10 2 26 -10 23 -3 -1 -18 -4 -33 -6z m236 -21 c6
-9 -83 -7 -92 2 -3 3 15 6 41 6 25 0 48 -4 51 -8z m-214 -6 c0 -11 -19 -15
-25 -6 -3 5 1 10 9 10 9 0 16 -2 16 -4z m-95 -26 c3 -5 -1 -10 -10 -10 -9 0
-13 5 -10 10 3 6 8 10 10 10 2 0 7 -4 10 -10z m50 0 c3 -6 -4 -10 -17 -10 -18
0 -20 2 -8 10 19 12 18 12 25 0z m250 -10 c-3 -5 -11 -10 -16 -10 -6 0 -7 5
-4 10 3 6 11 10 16 10 6 0 7 -4 4 -10z m270 0 c18 -5 1 -6 -45 -3 -41 3 -77 7
-79 9 -8 7 93 2 124 -6z m-415 -30 c0 -5 -10 -10 -22 -9 -22 0 -22 1 -3 9 11
5 21 9 23 9 1 1 2 -3 2 -9z m77 4 c-3 -3 -12 -4 -19 -1 -8 3 -5 6 6 6 11 1 17
-2 13 -5z m-712 -394 c3 -5 1 -10 -4 -10 -6 0 -11 5 -11 10 0 6 2 10 4 10 3 0
8 -4 11 -10z m124 -50 c41 0 59 -19 21 -21 -11 -1 -26 -2 -32 -3 -7 -1 -21 3
-31 10 -10 6 -28 9 -40 6 -19 -5 -20 -4 -8 11 10 12 18 14 31 7 10 -6 37 -10
59 -10z m103 -22 c-9 -9 -15 -9 -24 0 -9 9 -7 12 12 12 19 0 21 -3 12 -12z
m-52 -18 c0 -5 -2 -10 -4 -10 -3 0 -8 5 -11 10 -3 6 -1 10 4 10 6 0 11 -4 11
-10z m176 -58 c9 -5 8 -10 -1 -19 -10 -9 -14 -8 -18 8 -5 20 0 24 19 11z m375
-105 c-1 -4 -3 -7 -6 -7 -40 0 -40 0 -25 10 16 10 32 9 31 -3z m-23 -42 c17
-4 32 -11 32 -17 0 -6 -8 -7 -17 -3 -10 4 -33 11 -50 17 -18 5 -33 11 -33 14
0 3 8 3 18 0 9 -2 32 -7 50 -11z m135 -32 c-7 -2 -19 -2 -25 0 -7 3 -2 5 12 5
14 0 19 -2 13 -5z"/>
<path d="M255 347 c-4 -10 -5 -21 -1 -24 10 -10 18 4 13 24 -4 17 -4 17 -12 0z"/>
</g>
</svg>
