<?xml version="1.0" standalone="no"?>
<!DOCTYPE svg PUBLIC "-//W3C//DTD SVG 20010904//EN"
 "http://www.w3.org/TR/2001/REC-SVG-20010904/DTD/svg10.dtd">
<svg version="1.0" xmlns="http://www.w3.org/2000/svg"
 width="47.000000pt" height="38.000000pt" viewBox="0 0 188.000000 151.000000"
 preserveAspectRatio="xMidYMid meet">

<g transform="translate(0.000000,151.000000) scale(0.100000,-0.100000)"
fill="#000000" stroke="none">
<path d="M1285 1399 c-118 -17 -200 -32 -210 -39 -23 -16 -125 -58 -120 -50 8
13 -12 13 -37 -1 -15 -8 -17 -13 -9 -19 9 -5 6 -9 -8 -13 -12 -3 -19 -1 -15 4
3 5 -2 9 -10 9 -8 0 -19 -6 -23 -13 -13 -21 -67 -55 -80 -50 -6 2 -17 -5 -23
-17 -6 -11 -16 -19 -23 -18 -7 2 -22 -7 -35 -20 -23 -23 -14 -29 19 -12 32 18
21 3 -15 -19 -37 -23 -61 -28 -50 -9 4 7 3 8 -5 4 -6 -4 -9 -11 -6 -16 3 -5 1
-11 -5 -15 -6 -4 -8 -11 -4 -16 3 -5 2 -9 -3 -8 -4 1 -14 1 -21 0 -15 -1 -224
-202 -218 -209 8 -8 -38 -52 -55 -52 -19 0 -37 52 -20 58 6 2 9 8 5 13 -3 5 2
12 10 15 9 3 16 10 16 16 0 5 -13 0 -29 -11 -21 -15 -28 -27 -24 -41 3 -12 0
-20 -8 -20 -8 0 -4 -9 9 -23 29 -31 28 -39 -10 -60 -23 -14 -28 -21 -20 -29
27 -27 -6 -91 -34 -67 -7 6 -20 0 -37 -17 -28 -27 -27 -47 5 -77 23 -22 23
-28 -2 -55 -11 -11 -16 -24 -11 -27 5 -3 16 4 24 16 10 14 17 17 22 9 4 -6 17
-15 29 -20 18 -8 16 -9 -14 -11 -19 -1 -27 -3 -18 -6 22 -5 23 -22 3 -29 -8
-4 -15 -12 -15 -20 0 -8 -6 -11 -15 -8 -9 4 -15 0 -15 -10 0 -13 -5 -14 -26
-6 -42 16 -52 10 -11 -7 20 -8 37 -22 37 -30 0 -8 6 -13 12 -11 15 5 44 -20
34 -29 -3 -3 -13 0 -22 8 -16 13 -16 12 -5 -9 7 -14 18 -21 26 -18 17 6 30
-10 15 -19 -5 -3 -10 -11 -10 -16 0 -6 4 -8 9 -4 14 8 24 -14 12 -28 -6 -8 -6
-18 -1 -27 6 -8 10 -26 10 -40 0 -37 23 -130 33 -130 4 0 7 27 6 61 -2 40 2
63 10 69 9 5 10 10 2 14 -6 4 -11 13 -11 19 0 7 4 6 11 -3 7 -11 10 -5 8 25
-2 48 8 82 27 89 12 5 18 -5 15 -26 0 -4 17 -12 38 -18 34 -9 38 -13 34 -38
-4 -24 -2 -24 12 8 14 31 14 36 0 46 -17 13 -11 40 12 48 11 4 13 2 9 -9 -3
-9 0 -15 9 -15 8 0 15 9 15 20 0 17 7 20 40 20 30 0 40 -4 40 -16 0 -8 -4 -12
-10 -9 -5 3 -23 -1 -40 -10 -22 -11 -30 -23 -30 -41 0 -23 2 -25 15 -14 9 7
18 10 22 7 3 -4 14 -2 24 4 23 12 24 6 3 -15 -14 -15 -13 -16 10 -16 14 0 28
-4 31 -10 10 -17 102 -11 167 11 33 11 79 22 102 24 23 3 53 7 68 9 16 2 47 7
70 10 l43 6 -40 -20 c-22 -11 -29 -17 -15 -13 14 3 48 7 75 8 28 1 61 7 75 12
14 6 36 13 50 17 19 6 21 5 10 -3 -12 -8 -7 -11 23 -11 20 0 37 4 37 9 0 5 15
13 33 16 17 4 40 14 50 23 9 8 20 12 24 9 3 -4 20 2 37 12 29 18 102 42 137
46 10 1 31 14 49 28 17 15 41 27 53 27 19 0 17 -4 -13 -30 -19 -17 -47 -33
-62 -36 -16 -4 -28 -10 -28 -14 0 -16 -61 -32 -96 -26 -21 4 -34 3 -30 -2 5
-9 -34 -32 -62 -38 -37 -7 -38 -41 -1 -42 22 0 29 4 27 15 -2 10 6 16 27 18
17 2 36 4 44 6 8 2 16 -3 18 -12 3 -11 -12 -20 -56 -34 -33 -10 -67 -15 -76
-11 -11 4 -15 2 -12 -6 2 -7 -5 -19 -17 -26 -19 -11 -18 -12 14 -10 23 2 34 8
32 16 -1 8 1 11 6 8 14 -9 97 9 95 21 -1 6 9 8 25 5 26 -5 25 -6 -17 -24 -23
-10 -54 -20 -69 -23 -14 -2 -28 -8 -31 -13 -3 -5 -15 -14 -26 -21 l-20 -12 20
5 c11 2 34 9 51 14 18 6 37 6 45 1 11 -7 9 -9 -7 -9 -12 0 -24 -7 -28 -15 -5
-13 -1 -13 27 -1 87 38 167 77 167 81 0 8 -50 -5 -88 -23 -49 -22 -49 -8 0 18
24 12 46 27 51 34 5 8 9 8 15 -2 7 -10 11 -10 22 3 11 14 10 17 -9 22 -31 8
-23 35 14 48 17 5 32 13 35 16 3 3 16 10 30 14 25 8 25 8 6 -14 -11 -11 -27
-21 -36 -21 -9 0 -24 -6 -33 -12 -16 -12 -15 -13 5 -14 13 0 32 -4 43 -9 11
-4 17 -5 13 0 -12 13 13 35 36 31 11 -2 15 -1 9 1 -19 7 -15 20 7 26 11 3 20
1 20 -4 0 -5 5 -9 10 -9 6 0 10 9 10 21 0 11 -4 18 -9 15 -5 -4 -11 0 -14 6
-3 10 -7 10 -20 0 -9 -8 -22 -10 -29 -6 -7 5 -17 9 -23 10 -5 0 -16 2 -23 2
-8 1 5 18 28 37 23 19 39 35 35 35 -16 0 25 30 42 30 10 0 26 7 36 15 18 13
17 14 -5 17 -14 2 -22 9 -19 18 9 32 2 70 -13 81 -5 4 3 19 18 33 27 28 33 46
15 46 -7 0 -9 12 -5 35 3 19 9 51 12 71 5 26 4 35 -5 30 -7 -4 -11 0 -11 13 0
10 6 22 13 25 9 3 7 8 -5 16 -13 8 -15 19 -11 47 4 26 3 34 -5 29 -7 -4 -10
-2 -7 6 6 17 -18 84 -39 109 -9 11 -16 25 -16 33 0 19 -27 40 -34 27 -4 -5 2
-14 11 -20 10 -6 13 -11 8 -11 -12 0 -65 54 -65 67 0 4 4 2 9 -5 5 -8 16 -12
26 -10 12 2 6 11 -25 33 -24 17 -53 40 -67 52 -22 22 -23 24 -8 47 16 24 16
25 -27 43 -24 11 -65 25 -93 33 -27 7 -54 17 -59 21 -6 5 -12 8 -15 8 -4 -1
-33 -5 -66 -10z m53 -50 c-20 -11 -21 -11 -50 1 -19 7 -15 9 22 9 35 0 41 -2
28 -10z m120 -16 c26 -19 34 -22 29 -10 -9 23 9 21 35 -3 22 -21 19 -23 -27
-22 -44 1 -75 7 -75 14 0 4 8 8 18 8 12 0 8 6 -13 20 -16 11 -24 20 -16 20 8
0 30 -12 49 -27z m-848 -307 c0 -2 -11 -11 -25 -20 -28 -19 -33 -15 -9 8 14
15 34 22 34 12z m1120 -6 c0 -5 -4 -10 -9 -10 -6 0 -13 5 -16 10 -3 6 1 10 9
10 9 0 16 -4 16 -10z m-1510 -370 c0 -5 -5 -10 -11 -10 -5 0 -7 5 -4 10 3 6 8
10 11 10 2 0 4 -4 4 -10z m20 -70 c0 -5 -5 -10 -11 -10 -5 0 -7 5 -4 10 3 6 8
10 11 10 2 0 4 -4 4 -10z m35 -10 c3 -5 1 -10 -4 -10 -6 0 -11 5 -11 10 0 6 2
10 4 10 3 0 8 -4 11 -10z m519 -61 c-3 -5 -14 -9 -24 -9 -10 0 -20 -5 -22 -12
-3 -9 -6 -9 -11 -1 -11 17 20 42 43 36 11 -3 17 -9 14 -14z m-38 -66 c-2 -9
-9 -19 -17 -22 -8 -2 -19 -11 -25 -19 -14 -19 -48 -12 -52 11 -2 12 7 22 30
32 45 19 67 19 64 -2z m-549 -48 c0 -8 -4 -12 -9 -9 -5 3 -6 10 -3 15 9 13 12
11 12 -6z m50 -17 c-3 -8 -6 -5 -6 6 -1 11 2 17 5 13 3 -3 4 -12 1 -19z m518
2 c3 -6 -5 -10 -19 -10 -14 0 -28 -4 -31 -10 -7 -12 -65 -14 -65 -2 0 22 103
41 115 22z m133 -12 c-3 -7 -24 -19 -49 -27 -24 -8 -57 -20 -74 -28 -29 -14
-29 -14 23 -10 64 5 67 -5 7 -21 -75 -20 -103 -14 -73 16 9 9 8 12 -4 12 -9 0
-18 -6 -21 -12 -3 -10 -9 -10 -27 0 -12 7 -25 11 -28 7 -9 -8 19 -25 43 -25
17 -1 17 -3 -4 -11 -35 -14 -118 -9 -118 7 0 7 50 29 116 51 160 52 216 63
209 41z m-508 -39 c0 -5 6 -7 13 -3 6 4 3 -2 -8 -13 -20 -21 -38 -12 -28 14 6
16 23 18 23 2z m503 -16 c-7 -2 -19 -2 -25 0 -7 3 -2 5 12 5 14 0 19 -2 13 -5z
m347 -3 c0 -5 -5 -10 -11 -10 -5 0 -7 5 -4 10 3 6 8 10 11 10 2 0 4 -4 4 -10z
m290 6 c0 -2 -7 -6 -15 -10 -8 -3 -15 -1 -15 4 0 6 7 10 15 10 8 0 15 -2 15
-4z"/>
<path d="M1591 1263 c18 -21 35 -40 37 -42 1 -2 2 0 2 5 0 13 -54 74 -65 74
-5 0 7 -17 26 -37z"/>
<path d="M558 1083 c7 -3 16 -2 19 1 4 3 -2 6 -13 5 -11 0 -14 -3 -6 -6z"/>
<path d="M533 1060 c-13 -5 -23 -12 -23 -15 0 -9 16 -5 36 10 22 16 19 18 -13
5z"/>
<path d="M146 435 c4 -8 11 -15 16 -15 6 0 5 6 -2 15 -7 8 -14 15 -16 15 -2 0
-1 -7 2 -15z"/>
<path d="M1685 428 c-19 -18 -19 -18 20 -12 22 3 42 7 44 9 5 6 -10 25 -20 25
-6 0 -7 -6 -3 -12 6 -10 4 -10 -7 -2 -11 9 -18 7 -34 -8z"/>
<path d="M1759 418 c-12 -23 -12 -23 10 -4 23 21 26 26 11 26 -5 0 -15 -10
-21 -22z"/>
<path d="M1285 280 c-3 -5 -2 -10 4 -10 5 0 13 5 16 10 3 6 2 10 -4 10 -5 0
-13 -4 -16 -10z"/>
<path d="M1155 271 c-6 -11 13 -26 22 -17 4 3 1 6 -6 6 -7 0 -9 5 -6 10 3 6 4
10 1 10 -3 0 -7 -4 -11 -9z"/>
<path d="M930 260 c-12 -8 -11 -10 8 -10 12 0 22 5 22 10 0 13 -11 13 -30 0z"/>
<path d="M567 199 c10 -16 26 -29 36 -29 10 0 16 4 13 9 -3 5 4 12 17 15 l22
7 -25 10 c-14 6 -37 12 -53 14 l-27 4 17 -30z"/>
<path d="M1246 212 c-2 -4 4 -8 14 -8 10 0 16 4 14 8 -3 4 -9 8 -14 8 -5 0
-11 -4 -14 -8z"/>
</g>
</svg>
