<?xml version="1.0" standalone="no"?>
<!DOCTYPE svg PUBLIC "-//W3C//DTD SVG 20010904//EN"
 "http://www.w3.org/TR/2001/REC-SVG-20010904/DTD/svg10.dtd">
<svg version="1.0" xmlns="http://www.w3.org/2000/svg"
 width="25.000000pt" height="26.000000pt" viewBox="0 0 100.000000 103.000000"
 preserveAspectRatio="xMidYMid meet">

<g transform="translate(0.000000,103.000000) scale(0.100000,-0.100000)"
fill="#000000" stroke="none">
<path d="M529 895 c36 -16 108 -22 81 -6 -8 5 -37 12 -65 15 l-50 7 34 -16z"/>
<path d="M430 883 c0 -5 -15 -7 -34 -5 -18 2 -37 -1 -40 -7 -4 -7 -1 -9 8 -5
8 3 25 -1 38 -10 13 -8 41 -18 63 -22 61 -10 80 -26 24 -20 -56 6 -160 -9
-170 -25 -5 -8 -8 -8 -13 0 -4 6 -19 11 -34 11 -19 0 -23 -3 -14 -9 10 -6 5
-10 -15 -14 -16 -3 -40 -15 -53 -25 -22 -17 -23 -22 -10 -37 12 -15 12 -16 -6
-13 -14 2 -18 -2 -16 -18 2 -13 -10 -35 -29 -55 -17 -19 -38 -51 -45 -73 -17
-46 -17 -49 -4 -41 6 3 10 15 10 26 0 11 5 17 10 14 15 -9 12 -19 -10 -43 -17
-18 -18 -22 -5 -22 11 0 15 -12 15 -50 0 -57 -21 -69 -38 -22 l-10 27 -1 -33
c-1 -20 7 -41 19 -54 11 -12 20 -29 20 -39 0 -9 6 -31 14 -49 10 -25 32 -42
106 -82 52 -27 88 -42 81 -34 -11 13 -11 16 3 16 9 0 16 -7 16 -15 0 -8 7 -15
16 -15 10 0 14 -6 11 -14 -8 -20 16 -27 68 -19 28 3 45 11 45 19 0 10 13 14
43 14 24 0 48 5 55 12 9 9 15 9 24 0 9 -9 8 -12 -7 -12 -15 0 -17 -2 -6 -9 8
-5 24 -3 42 7 18 11 24 19 16 24 -19 12 2 9 25 -3 12 -6 18 -7 14 -1 -3 5 2
16 11 23 14 12 16 12 9 -1 -4 -8 2 -4 13 10 14 17 21 20 21 10 0 -8 11 9 25
39 14 30 28 51 32 48 3 -4 0 -13 -7 -22 -7 -8 -8 -15 -2 -15 5 0 13 7 16 16 3
8 10 13 15 10 5 -3 12 1 15 10 3 8 2 12 -4 9 -5 -3 -8 7 -7 23 1 19 7 28 14
25 20 -8 30 36 25 109 -4 63 -3 70 20 91 14 13 27 30 30 38 3 8 8 11 12 8 3
-3 -3 -17 -14 -32 -26 -33 -25 -40 2 -31 33 10 45 32 42 73 -2 20 -3 40 -3 44
-1 5 -5 6 -10 2 -5 -3 -13 0 -16 6 -4 6 2 13 14 16 14 3 21 13 20 27 -1 17 -2
17 -6 4 -5 -19 -23 -25 -23 -8 0 5 -16 24 -35 41 -19 18 -35 38 -35 45 0 7 -5
16 -12 20 -8 5 -9 2 -5 -10 6 -14 3 -15 -13 -6 -11 6 -19 16 -17 23 2 13 -27
14 -55 2 -14 -5 -16 -2 -13 14 4 22 -18 51 -40 51 -7 0 -22 3 -32 6 -15 5 -15
4 -3 -5 27 -19 0 -24 -57 -11 -32 8 -74 14 -94 15 -19 1 -41 5 -47 9 -7 4 -12
3 -12 -1z m-70 -105 c0 -4 -6 -8 -14 -8 -8 0 -16 -5 -18 -12 -2 -6 -12 -9 -21
-5 -24 9 -21 26 3 20 11 -3 20 -1 20 4 0 5 7 10 15 10 8 0 15 -4 15 -9z m285
-6 c-3 -3 -11 0 -18 7 -9 10 -8 11 6 5 10 -3 15 -9 12 -12z m-420 -31 c-3 -6
-14 -11 -23 -11 -15 1 -15 2 2 15 21 16 32 13 21 -4z m630 -129 c1 -23 -3 -42
-7 -42 -8 0 -12 16 -9 33 0 4 -3 7 -9 7 -5 0 -10 5 -10 11 0 5 6 7 13 3 9 -6
9 -5 0 8 -14 16 -7 31 11 25 6 -2 11 -22 11 -45z m-33 -227 c-6 -34 -12 -32
-12 6 0 16 4 28 9 25 4 -3 6 -17 3 -31z m-415 -251 c-3 -3 -12 -4 -19 -1 -8 3
-5 6 6 6 11 1 17 -2 13 -5z"/>
<path d="M230 810 c-8 -5 -12 -11 -10 -14 3 -2 14 2 24 10 22 15 10 19 -14 4z"/>
<path d="M130 669 c0 -5 5 -7 10 -4 6 3 10 8 10 11 0 2 -4 4 -10 4 -5 0 -10
-5 -10 -11z"/>
</g>
</svg>
