<?xml version="1.0" standalone="no"?>
<!DOCTYPE svg PUBLIC "-//W3C//DTD SVG 20010904//EN"
 "http://www.w3.org/TR/2001/REC-SVG-20010904/DTD/svg10.dtd">
<svg version="1.0" xmlns="http://www.w3.org/2000/svg"
 width="36.000000pt" height="38.000000pt" viewBox="0 0 144.000000 152.000000"
 preserveAspectRatio="xMidYMid meet">

<g transform="translate(0.000000,152.000000) scale(0.100000,-0.100000)"
fill="#000000" stroke="none">
<path d="M470 1410 c-13 -9 -13 -10 0 -10 8 0 22 5 30 10 13 9 13 10 0 10 -8
0 -22 -5 -30 -10z"/>
<path d="M714 1412 c6 -9 -4 -12 -41 -12 -79 1 -162 -15 -182 -36 -48 -49
-113 -85 -138 -77 -7 3 -14 0 -14 -6 -1 -6 -2 -17 -3 -23 -1 -7 2 -16 6 -19 5
-3 -1 -14 -13 -25 -20 -17 -22 -17 -16 -1 4 11 1 17 -9 17 -12 0 -15 -6 -10
-24 4 -18 0 -29 -16 -43 -29 -23 -90 -115 -113 -170 -10 -23 -23 -39 -28 -36
-6 4 -8 0 -4 -10 3 -10 3 -17 -2 -17 -10 0 -30 -73 -31 -110 -1 -14 -1 -56 -1
-95 -1 -38 -3 -62 -6 -52 -5 20 -23 13 -23 -9 0 -8 9 -14 20 -14 21 0 27 -14
11 -25 -11 -6 -10 -45 1 -45 4 0 8 -11 8 -24 0 -14 15 -54 34 -90 21 -41 32
-74 29 -88 -3 -17 -2 -19 5 -9 15 21 46 -33 44 -75 -2 -22 2 -36 11 -40 8 -3
24 -19 37 -36 12 -17 19 -28 13 -25 -5 3 -10 -3 -10 -14 -2 -16 1 -18 12 -9
10 8 16 7 22 -5 5 -9 29 -22 54 -30 24 -7 38 -14 31 -14 -10 -1 -10 -4 0 -14
7 -8 19 -12 28 -10 8 2 53 0 100 -5 47 -5 90 -6 95 -2 6 4 42 10 80 14 71 6
172 32 189 48 6 4 18 8 28 8 11 0 23 11 28 25 6 16 17 25 32 25 12 0 33 10 46
23 23 20 25 21 18 2 -6 -16 -2 -15 21 8 29 27 50 37 38 17 -3 -5 -1 -10 4 -10
6 0 11 5 11 10 0 14 92 112 98 105 10 -10 81 67 75 81 -3 8 2 25 11 39 17 26
21 39 9 32 -5 -3 -7 16 -5 41 1 26 2 60 2 76 0 15 5 35 12 44 7 9 8 13 2 9
-12 -7 -12 -7 -19 154 -4 107 -44 269 -65 269 -6 0 -20 21 -32 46 -23 49 -174
211 -186 199 -4 -4 6 -17 22 -30 15 -12 24 -25 18 -29 -5 -3 -21 3 -35 14 -14
11 -30 20 -37 20 -14 0 -94 42 -98 53 -2 4 -15 7 -29 7 -14 0 -32 8 -40 18
-10 13 -13 13 -11 2 2 -11 -5 -14 -32 -12 -19 2 -41 9 -49 15 -12 9 -13 9 -7
-1z m-314 -130 c0 -4 -9 -13 -19 -19 -15 -10 -20 -9 -25 2 -3 9 0 12 8 9 8 -3
17 -1 21 5 7 13 15 14 15 3z m890 -732 c0 -5 -2 -10 -4 -10 -3 0 -8 5 -11 10
-3 6 -1 10 4 10 6 0 11 -4 11 -10z m-52 -96 c-7 -15 -14 -21 -16 -15 -2 7 2
18 8 26 18 22 21 18 8 -11z m-83 -124 c-3 -5 -11 -10 -16 -10 -6 0 -7 5 -4 10
3 6 11 10 16 10 6 0 7 -4 4 -10z m-884 -43 c16 -12 22 -47 8 -47 -14 0 -21 20
-7 21 7 1 2 4 -11 8 -26 7 -41 31 -19 31 7 0 20 -6 29 -13z m55 -74 c-7 -7
-26 7 -26 19 0 6 6 6 15 -2 9 -7 13 -15 11 -17z m371 -99 c-3 -3 -12 -4 -19
-1 -8 3 -5 6 6 6 11 1 17 -2 13 -5z m-124 -11 c-7 -2 -19 -2 -25 0 -7 3 -2 5
12 5 14 0 19 -2 13 -5z"/>
<path d="M71 764 c0 -11 3 -14 6 -6 3 7 2 16 -1 19 -3 4 -6 -2 -5 -13z"/>
<path d="M82 511 c-11 -6 -10 -14 3 -42 8 -19 13 -25 10 -15 -3 11 -2 22 3 25
15 10 -1 41 -16 32z"/>
<path d="M100 421 c0 -5 5 -13 10 -16 6 -3 10 -2 10 4 0 5 -4 13 -10 16 -5 3
-10 2 -10 -4z"/>
<path d="M80 390 c0 -5 5 -10 11 -10 5 0 8 -4 5 -8 -2 -4 0 -14 5 -22 7 -11 8
-8 5 10 -3 14 -5 28 -5 33 -1 11 -21 8 -21 -3z"/>
<path d="M150 341 c0 -5 5 -13 10 -16 6 -3 10 -2 10 4 0 5 -4 13 -10 16 -5 3
-10 2 -10 -4z"/>
<path d="M120 304 c0 -6 7 -19 16 -30 14 -18 14 -18 3 6 -14 31 -19 36 -19 24z"/>
<path d="M179 226 c8 -9 24 -22 35 -28 19 -10 20 -10 7 6 -8 9 -24 22 -35 28
-19 10 -20 10 -7 -6z"/>
</g>
</svg>
