<?xml version="1.0" standalone="no"?>
<!DOCTYPE svg PUBLIC "-//W3C//DTD SVG 20010904//EN"
 "http://www.w3.org/TR/2001/REC-SVG-20010904/DTD/svg10.dtd">
<svg version="1.0" xmlns="http://www.w3.org/2000/svg"
 width="39.000000pt" height="43.000000pt" viewBox="0 0 159.000000 171.000000"
 preserveAspectRatio="xMidYMid meet">

<g transform="translate(0.000000,171.000000) scale(0.100000,-0.100000)"
fill="#000000" stroke="none">
<path d="M742 1603 c-6 -2 -10 -9 -7 -14 3 -4 -7 -11 -22 -14 -15 -3 -68 -19
-118 -36 -49 -16 -96 -31 -104 -33 -7 -1 -24 -12 -36 -24 -13 -12 -29 -22 -37
-22 -26 0 -127 -79 -156 -123 -30 -44 -54 -120 -45 -142 2 -8 -5 -18 -16 -25
-12 -6 -21 -21 -21 -34 0 -12 -11 -36 -25 -52 -14 -16 -25 -36 -25 -46 0 -9
-5 -18 -10 -20 -6 -2 -12 -53 -14 -123 -5 -145 -4 -138 -16 -130 -5 3 -10 -3
-10 -14 0 -11 4 -22 9 -26 5 -3 9 -18 9 -33 -1 -15 11 -57 27 -92 57 -133 58
-138 37 -143 -10 -3 -6 -5 10 -6 17 -1 29 -8 33 -21 3 -11 10 -20 15 -20 13 0
106 -101 100 -108 -3 -4 -9 -6 -15 -4 -5 2 -1 -6 9 -17 23 -25 34 -28 15 -4
-13 15 -11 16 11 10 14 -4 31 -7 38 -7 7 0 10 -4 7 -10 -3 -5 10 -19 29 -31
21 -12 33 -26 29 -32 -3 -7 2 -5 13 4 22 19 51 14 35 -5 -7 -8 -4 -12 9 -12
10 0 17 3 15 7 -6 9 77 -7 133 -26 25 -9 59 -17 74 -18 15 -1 28 -5 28 -9 0
-5 5 -8 11 -8 5 0 7 5 4 10 -3 6 0 10 7 11 58 3 70 6 78 19 7 10 10 11 10 3 0
-7 5 -13 11 -13 5 0 7 4 4 10 -8 13 39 24 69 16 14 -3 28 -1 32 6 4 6 3 8 -4
5 -5 -4 -21 -3 -34 2 -17 6 -8 9 40 10 40 1 61 -3 57 -9 -3 -5 -1 -10 4 -10 6
0 11 7 11 16 0 11 6 13 19 9 11 -3 22 -1 26 5 3 5 14 10 25 10 10 0 20 6 23
13 3 8 30 26 60 42 31 15 58 33 61 40 2 7 21 18 40 25 20 6 33 16 30 22 -3 5
8 24 26 41 39 39 83 123 77 148 -3 11 -1 17 3 14 5 -3 11 -1 14 4 3 5 -2 12
-11 15 -15 6 -15 9 -3 16 8 5 18 6 24 3 5 -4 6 -1 2 6 -5 7 -1 20 7 29 16 19
32 62 22 62 -3 0 -10 -12 -16 -26 -5 -15 -12 -24 -16 -21 -3 4 4 30 15 59 25
64 37 138 22 138 -5 0 -10 5 -10 11 0 5 5 7 10 4 6 -3 10 1 10 9 0 9 -5 15
-12 13 -6 -1 -14 6 -16 16 -2 11 3 17 15 17 17 1 17 2 -1 15 -11 8 -14 15 -8
15 7 0 12 5 12 11 0 6 -7 9 -15 5 -9 -3 -15 0 -15 8 0 8 5 16 10 18 7 2 7 14
1 36 -9 29 -8 33 7 30 9 -2 20 -14 24 -28 6 -21 7 -20 2 5 -13 72 -17 85 -30
96 -8 6 -14 17 -14 23 0 6 4 5 9 -3 6 -9 9 -5 9 13 0 31 -6 32 -24 9 -13 -17
-14 -17 -8 0 4 12 1 17 -12 17 -18 1 -18 1 0 15 20 15 20 15 0 15 -16 0 -17 2
-4 10 14 9 7 14 -13 11 -5 -1 -6 3 -3 8 3 5 -1 14 -9 21 -8 7 -12 16 -9 21 3
5 -1 9 -9 9 -8 0 -29 27 -46 60 -34 65 -57 92 -86 103 -10 4 -15 10 -11 14 5
6 -19 25 -64 52 -8 4 -30 13 -47 19 -27 8 -35 7 -43 -6 -8 -15 -9 -15 -10 3 0
11 -4 16 -8 10 -11 -16 -43 -16 -85 -1 -31 10 -35 15 -21 20 9 4 22 2 28 -4 5
-5 19 -10 31 -10 20 1 20 1 1 15 -22 17 -111 21 -101 5 5 -8 -6 -12 -45 -12
-3 -1 -19 2 -37 5 -22 4 -37 2 -48 -9 -9 -9 -15 -11 -15 -4 0 6 -5 8 -12 4 -8
-5 -9 -2 -5 9 6 17 -5 21 -31 10z m748 -498 c0 -8 -4 -15 -10 -15 -5 0 -10 7
-10 15 0 8 5 15 10 15 6 0 10 -7 10 -15z m-1373 -387 c-3 -8 -6 -5 -6 6 -1 11
2 17 5 13 3 -3 4 -12 1 -19z m317 -463 c5 0 10 -6 12 -13 1 -7 0 -8 -3 -2 -2
5 -8 8 -13 5 -4 -3 -14 3 -21 12 -12 15 -12 16 1 8 8 -6 19 -10 24 -10z"/>
<path d="M264 331 c20 -22 26 -25 26 -13 0 4 -10 13 -22 21 -23 14 -23 14 -4
-8z"/>
<path d="M405 205 c11 -9 29 -21 40 -26 l20 -10 -20 16 c-11 9 -29 21 -40 26
l-20 10 20 -16z"/>
<path d="M998 203 c7 -3 16 -2 19 1 4 3 -2 6 -13 5 -11 0 -14 -3 -6 -6z"/>
</g>
</svg>
