<?xml version="1.0" standalone="no"?>
<!DOCTYPE svg PUBLIC "-//W3C//DTD SVG 20010904//EN"
 "http://www.w3.org/TR/2001/REC-SVG-20010904/DTD/svg10.dtd">
<svg version="1.0" xmlns="http://www.w3.org/2000/svg"
 width="41.000000pt" height="46.000000pt" viewBox="0 0 163.000000 181.000000"
 preserveAspectRatio="xMidYMid meet">

<g transform="translate(0.000000,181.000000) scale(0.100000,-0.100000)"
fill="#000000" stroke="none">
<path d="M870 1690 c-9 -6 -10 -10 -3 -10 6 0 15 5 18 10 8 12 4 12 -15 0z"/>
<path d="M796 1649 c-10 -10 -32 -19 -49 -21 -17 -2 -33 -9 -35 -17 -3 -8 0
-11 7 -7 6 4 11 3 11 -2 0 -15 -41 -22 -61 -11 -10 5 -20 5 -23 0 -3 -4 -18
-11 -33 -14 -16 -4 -39 -16 -53 -28 -14 -11 -18 -18 -10 -14 8 3 2 -5 -14 -19
-17 -13 -32 -24 -35 -24 -3 1 -24 -7 -46 -17 -22 -10 -43 -18 -48 -17 -4 1
-12 -10 -17 -24 -6 -14 -19 -28 -29 -31 -11 -3 -22 -15 -25 -26 -5 -17 -8 -19
-15 -9 -6 10 -11 6 -19 -17 -6 -17 -19 -34 -29 -38 -10 -4 -23 -14 -30 -22
-10 -13 -13 -9 -13 24 -1 35 -2 37 -11 17 -5 -13 -6 -35 -3 -48 3 -13 1 -31
-6 -38 -6 -8 -14 -36 -16 -62 -5 -38 -13 -54 -42 -82 -21 -18 -30 -30 -22 -26
11 5 10 2 -3 -13 -9 -11 -14 -23 -10 -27 4 -4 -3 -9 -15 -13 -12 -3 -19 -9
-16 -15 3 -5 1 -15 -5 -22 -9 -10 -4 -21 18 -45 16 -17 35 -31 43 -31 7 0 1 8
-15 18 -25 15 -37 42 -19 42 11 0 52 -46 52 -59 0 -6 4 -11 8 -11 4 0 13 -12
20 -27 15 -34 34 -66 50 -85 12 -15 6 -85 -9 -94 -15 -9 -10 -109 6 -130 15
-19 15 -19 8 1 l-6 20 24 -20 c38 -32 39 -35 9 -84 -39 -63 -53 -127 -34 -156
8 -12 12 -24 10 -26 -3 -3 3 -5 12 -5 9 -1 25 -4 34 -9 28 -12 21 9 -9 27 -16
10 -23 18 -16 18 6 0 9 9 6 19 -3 11 0 28 5 38 10 17 11 17 17 0 10 -25 25
-21 25 7 0 13 9 34 21 47 11 13 17 18 14 11 -4 -8 -8 -26 -9 -41 -1 -16 -10
-36 -19 -46 -9 -9 -15 -21 -12 -26 4 -5 1 -9 -6 -9 -13 0 26 -38 57 -56 25
-14 142 -18 158 -5 21 17 76 2 76 -20 0 -11 -5 -19 -12 -19 -9 0 -9 -3 -1 -11
7 -7 19 -8 30 -4 10 5 26 7 35 6 10 -1 30 7 45 18 32 23 99 40 89 22 -4 -6
-13 -11 -21 -11 -7 0 -15 -7 -19 -15 -7 -19 8 -19 24 0 8 9 21 13 35 9 23 -6
215 23 225 33 3 3 -10 3 -28 1 -20 -3 -37 1 -43 9 -9 10 -8 13 4 13 8 0 23 3
33 7 13 5 15 3 9 -7 -5 -8 -3 -11 6 -8 8 3 14 11 14 19 0 8 10 15 23 17 20 3
27 13 23 36 -1 5 7 6 17 4 10 -3 30 1 43 8 13 7 36 13 51 14 15 0 29 4 32 8 2
4 19 8 38 9 l33 2 -35 -11 c-19 -6 -30 -12 -24 -15 22 -8 66 17 60 33 -5 12
-1 14 15 9 15 -5 19 -4 15 4 -7 10 19 16 52 12 15 -2 69 38 64 47 -2 3 5 9 15
13 13 5 7 8 -18 8 -46 1 -53 9 -27 31 22 17 21 17 -29 30 -44 11 -49 15 -37
27 25 25 15 34 -21 19 -49 -21 -130 -32 -121 -17 4 7 15 11 24 10 10 -1 26 0
37 1 l20 1 -20 9 c-16 7 -14 9 14 9 32 1 33 2 16 15 -17 12 -17 13 8 20 15 3
27 10 27 15 0 5 -9 7 -20 4 -13 -4 -20 0 -20 9 0 11 7 14 23 11 13 -3 42 0 65
7 49 13 58 36 12 26 -18 -3 -29 -2 -25 3 3 5 -1 12 -7 15 -7 4 8 4 34 1 47 -4
79 10 36 17 -14 2 -22 9 -20 18 3 12 1 13 -9 3 -15 -15 -55 -17 -63 -5 -3 5
-19 7 -35 4 -17 -2 -29 -7 -26 -11 2 -4 -12 -7 -30 -7 -19 1 -35 4 -35 9 0 4
4 7 8 7 5 0 9 6 9 14 0 10 -7 12 -28 6 -15 -5 -30 -6 -32 -4 -8 8 17 54 28 53
30 -3 55 2 55 12 0 6 -7 9 -15 6 -8 -4 -17 -2 -20 2 -2 5 19 9 47 9 47 0 50
-2 33 -14 -18 -14 -18 -14 1 -13 10 0 28 4 38 8 18 7 18 8 2 14 -12 5 -15 13
-11 26 4 14 1 20 -12 23 -13 3 -7 10 25 28 45 25 54 40 23 40 -11 0 -27 3 -37
7 -12 4 -15 3 -10 -5 5 -8 0 -12 -14 -12 -32 0 -8 19 67 55 l62 29 -32 19 -31
19 22 18 c26 22 29 32 5 23 -11 -4 -14 -3 -9 5 4 7 15 12 24 12 14 0 15 2 2
10 -12 8 -12 11 1 27 30 35 33 46 10 38 -16 -5 -20 -3 -15 9 3 9 11 16 17 16
6 0 -4 16 -23 35 -19 19 -29 35 -22 35 7 0 12 5 12 10 0 6 -6 10 -13 10 -16 0
-19 30 -3 31 6 0 1 4 -11 9 -16 7 -21 14 -16 26 5 13 3 15 -8 9 -11 -7 -11 -5
1 10 14 17 13 18 -5 11 -23 -9 -23 -9 -52 -7 -16 1 -23 7 -23 20 0 11 -5 32
-11 48 -7 15 -13 41 -15 57 -5 33 -14 48 -14 23 0 -20 -16 -22 -23 -3 -6 15
-67 28 -67 14 0 -17 -50 -7 -64 13 -8 12 -26 23 -40 24 -27 3 -35 -9 -13 -19
6 -4 -5 -4 -25 -2 -21 3 -38 0 -38 -5 0 -5 -16 -9 -35 -7 -19 1 -35 6 -35 11
0 4 -10 5 -21 2 -15 -5 -19 -4 -15 4 4 6 17 11 28 11 27 0 19 8 -18 19 -22 6
-33 4 -48 -10z m24 -35 c0 -8 -4 -12 -10 -9 -5 3 -10 10 -10 16 0 5 5 9 10 9
6 0 10 -7 10 -16z m-166 -39 c-4 -8 -11 -15 -16 -15 -6 0 -5 6 2 15 7 8 14 15
16 15 2 0 1 -7 -2 -15z m516 1 c0 -12 -10 -13 -72 -8 -38 4 -15 22 27 22 31 0
45 -4 45 -14z m-552 -28 c-5 -16 -48 -24 -48 -10 0 11 17 20 38 21 8 1 12 -5
10 -11z m-118 -78 c-8 -5 -19 -10 -25 -10 -5 0 -3 5 5 10 8 5 20 10 25 10 6 0
3 -5 -5 -10z m-328 -452 c-7 -7 -12 -8 -12 -2 0 14 12 26 19 19 2 -3 -1 -11
-7 -17z m-14 -54 c-10 -10 -28 6 -28 24 0 15 1 15 17 -1 9 -9 14 -19 11 -23z
m1095 -41 c-7 -2 -19 -2 -25 0 -7 3 -2 5 12 5 14 0 19 -2 13 -5z m-113 -97 c0
-3 -4 -8 -10 -11 -5 -3 -10 -1 -10 4 0 6 5 11 10 11 6 0 10 -2 10 -4z m195
-86 c3 -5 -1 -10 -9 -10 -9 0 -16 5 -16 10 0 6 4 10 9 10 6 0 13 -4 16 -10z
m-995 -69 c0 -32 -14 -49 -25 -31 -9 15 3 60 15 60 6 0 10 -13 10 -29z m-51
-13 c0 -27 -2 -29 -8 -13 -5 11 -6 26 -4 33 8 21 13 13 12 -20z m38 -79 c-13
-21 -38 -22 -45 -1 -2 7 2 10 11 6 11 -4 14 2 11 28 l-3 33 19 -23 c16 -19 17
-27 7 -43z m1086 -96 c-7 -2 -21 -2 -30 0 -10 3 -4 5 12 5 17 0 24 -2 18 -5z
m-961 -97 c8 -11 -9 -26 -31 -26 -9 0 -11 7 -8 21 4 16 3 18 -9 8 -14 -11 -20
1 -7 14 8 9 46 -2 55 -17z m-62 -56 c0 -5 -2 -10 -4 -10 -3 0 -8 5 -11 10 -3
6 -1 10 4 10 6 0 11 -4 11 -10z m463 -77 c-7 -2 -19 -2 -25 0 -7 3 -2 5 12 5
14 0 19 -2 13 -5z"/>
<path d="M890 1650 c0 -5 5 -10 11 -10 5 0 7 5 4 10 -3 6 -8 10 -11 10 -2 0
-4 -4 -4 -10z"/>
<path d="M1258 1643 c18 -2 45 -2 60 0 15 2 0 4 -33 4 -33 0 -45 -2 -27 -4z"/>
<path d="M1355 1491 c-3 -5 2 -11 10 -15 8 -3 17 -1 20 3 3 5 -2 11 -10 15 -8
3 -17 1 -20 -3z"/>
<path d="M1198 833 c7 -3 16 -2 19 1 4 3 -2 6 -13 5 -11 0 -14 -3 -6 -6z"/>
<path d="M1310 819 c-25 -5 -53 -6 -64 -3 -12 4 -16 2 -12 -5 10 -15 114 -11
120 6 3 7 4 13 3 12 -1 -1 -22 -5 -47 -10z"/>
<path d="M1418 793 c7 -3 16 -2 19 1 4 3 -2 6 -13 5 -11 0 -14 -3 -6 -6z"/>
<path d="M1160 364 c0 -7 52 -25 57 -20 2 2 -10 8 -26 14 -17 6 -31 9 -31 6z"/>
<path d="M1330 310 c-23 -7 -23 -8 -3 -9 12 -1 25 4 28 9 3 6 5 10 3 9 -2 -1
-14 -5 -28 -9z"/>
<path d="M1110 277 c-36 -11 -87 -30 -113 -43 -40 -19 -44 -23 -25 -26 13 -2
-4 -7 -37 -11 -34 -4 -71 -16 -85 -27 l-25 -20 34 4 c19 2 47 -1 62 -6 20 -7
35 -5 58 6 16 9 47 16 68 17 46 0 136 29 161 50 28 24 52 30 52 14 0 -8 4 -15
10 -15 5 0 7 6 4 14 -4 10 11 15 58 20 36 3 68 12 73 20 6 8 22 16 35 19 19 3
17 5 -10 6 -19 0 -66 -8 -105 -19 -46 -13 -73 -16 -79 -10 -6 6 -14 10 -20 10
-5 0 -1 -7 10 -15 18 -13 17 -14 -18 -15 -20 0 -44 -3 -54 -7 -11 -4 -15 -3
-10 5 3 6 -3 12 -16 15 -21 4 -21 4 3 6 14 0 34 8 45 16 27 20 4 18 -76 -8z
m10 -71 c0 -2 -9 -6 -20 -9 -11 -3 -20 -1 -20 4 0 5 9 9 20 9 11 0 20 -2 20
-4z"/>
<path d="M524 229 c-3 -5 6 -9 20 -9 31 0 34 6 6 13 -11 3 -23 1 -26 -4z"/>
<path d="M802 198 c-26 -6 -40 -13 -36 -20 5 -7 -2 -9 -20 -6 -21 4 -24 3 -15
-8 15 -19 29 -17 58 5 14 10 31 17 38 14 7 -3 20 2 28 11 19 18 13 19 -53 4z"/>
<path d="M1208 193 c7 -3 16 -2 19 1 4 3 -2 6 -13 5 -11 0 -14 -3 -6 -6z"/>
<path d="M1085 160 c-18 -8 -17 -9 7 -9 15 -1 30 4 33 9 7 12 -12 12 -40 0z"/>
<path d="M995 150 c-8 -13 5 -13 25 0 13 8 13 10 -2 10 -9 0 -20 -4 -23 -10z"/>
<path d="M810 128 c0 -5 12 -5 27 -2 22 6 25 4 20 -10 -4 -10 -1 -16 9 -16 12
0 12 4 4 20 -10 19 -60 26 -60 8z"/>
<path d="M931 125 c-20 -7 -28 -14 -20 -17 8 -3 29 0 48 7 21 7 29 13 20 16
-8 3 -29 0 -48 -6z"/>
<path d="M913 86 c-8 -4 -36 -6 -61 -2 -51 7 -51 -2 0 -14 18 -3 32 -12 31
-18 -2 -7 7 -12 18 -12 18 0 19 3 9 15 -10 12 -7 15 17 20 15 4 37 10 48 14
16 6 13 8 -13 7 -18 -1 -40 -5 -49 -10z"/>
</g>
</svg>
