<?xml version="1.0" standalone="no"?>
<!DOCTYPE svg PUBLIC "-//W3C//DTD SVG 20010904//EN"
 "http://www.w3.org/TR/2001/REC-SVG-20010904/DTD/svg10.dtd">
<svg version="1.0" xmlns="http://www.w3.org/2000/svg"
 width="62.000000pt" height="33.000000pt" viewBox="0 0 252.000000 129.000000"
 preserveAspectRatio="xMidYMid meet">

<g transform="translate(0.000000,129.000000) scale(0.100000,-0.100000)"
fill="#000000" stroke="none">
<path d="M380 1168 c0 -4 -14 -6 -30 -3 -27 5 -32 2 -41 -24 -11 -31 -37 -33
-60 -5 -6 8 -16 14 -21 14 -6 0 -5 -7 2 -15 11 -14 10 -14 -14 -5 -35 13 -36
13 -36 -5 0 -17 -16 -20 -25 -5 -3 6 -11 10 -17 10 -6 0 -3 -9 8 -21 17 -19
17 -21 2 -30 -13 -7 -16 -19 -12 -57 9 -73 24 -125 42 -139 16 -11 16 -12 0
-13 -15 0 -39 25 -81 84 -10 14 -22 26 -28 26 -11 0 88 -133 104 -139 6 -2 6
2 2 9 -5 9 -4 11 3 6 7 -4 12 -20 12 -37 0 -27 -3 -29 -35 -29 -34 0 -46 -12
-25 -25 6 -4 8 -11 4 -16 -3 -6 3 -13 15 -16 12 -3 21 -12 21 -19 0 -8 7 -17
15 -20 8 -4 13 -10 10 -14 -3 -4 1 -10 9 -13 13 -5 13 -22 0 -77 -4 -18 0 -31
15 -44 12 -11 21 -14 21 -8 0 18 43 9 48 -10 3 -12 14 -18 33 -18 16 0 29 -4
29 -8 0 -5 12 -13 28 -19 27 -10 27 -10 -9 -9 -21 0 -34 5 -31 10 3 5 0 6 -6
2 -19 -12 -14 -20 28 -43 43 -25 64 -31 36 -10 -16 12 -14 13 18 9 36 -4 62
-21 28 -18 -10 0 -16 -5 -14 -13 2 -10 -4 -12 -22 -7 -14 3 -28 2 -31 -4 -3
-5 0 -10 8 -10 8 0 20 -7 27 -14 6 -8 37 -20 68 -26 31 -6 64 -14 72 -19 24
-13 193 -14 185 -2 -6 10 3 12 60 15 11 1 37 7 58 15 21 7 41 10 44 7 3 -3 19
2 34 10 16 8 54 15 84 16 30 1 52 4 50 8 -2 3 26 2 63 -2 37 -5 98 -8 135 -8
43 1 75 -4 84 -12 13 -10 17 -10 20 0 7 20 83 12 83 -9 0 -5 -3 -8 -7 -8 -24
4 -43 -3 -43 -15 0 -8 -6 -16 -12 -19 -18 -6 57 -28 117 -34 28 -3 53 -10 57
-16 3 -6 30 -14 60 -18 29 -4 64 -10 78 -13 14 -4 52 -7 85 -8 33 0 65 -5 72
-10 6 -5 40 -11 75 -13 35 -2 72 -5 83 -7 12 -2 19 2 17 10 -1 8 2 10 8 7 6
-4 32 -1 57 7 l46 13 -39 5 -39 5 57 19 c31 10 64 16 72 13 9 -4 15 -3 13 1
-1 4 8 17 21 30 20 20 21 26 11 39 -11 13 -9 20 17 42 29 26 43 48 51 81 7 33
4 127 -6 153 -14 36 -14 50 0 41 8 -5 8 -1 0 14 -16 29 -14 32 15 32 21 0 25
4 21 20 -3 11 -1 18 4 15 11 -7 23 40 15 60 -3 8 0 15 7 15 7 0 18 4 26 9 11
7 9 13 -10 32 -22 22 -22 23 -3 30 10 4 13 8 6 8 -7 1 -11 5 -7 11 3 5 13 7
23 4 13 -5 14 -4 3 4 -16 11 -7 32 15 32 8 0 13 5 12 12 -6 24 -33 48 -56 48
-18 0 -23 4 -18 16 7 19 -14 42 -33 36 -8 -3 -11 0 -7 7 5 7 -5 11 -31 11 -26
0 -34 -3 -24 -9 8 -5 21 -7 29 -3 11 4 14 1 9 -11 -4 -11 1 -17 16 -20 13 -3
8 -5 -13 -5 -19 0 -44 3 -55 8 l-20 9 20 1 c18 1 18 2 -3 11 -13 5 -21 13 -17
18 3 6 -9 7 -31 4 -26 -4 -35 -3 -30 5 4 7 -7 12 -31 15 -21 2 -6 3 32 1 39
-2 90 -8 115 -13 45 -8 110 -40 110 -53 0 -5 9 -8 20 -8 27 0 25 12 -6 50 -27
31 -82 61 -113 59 -10 0 -7 -4 9 -11 77 -33 90 -39 95 -48 8 -14 -1 -12 -33 4
-28 14 -59 20 -179 36 -40 5 -88 12 -107 15 -39 8 -67 -2 -45 -16 10 -6 7 -8
-8 -6 -12 0 -19 5 -17 9 3 4 -9 8 -26 8 -19 0 -29 4 -25 11 5 7 -7 9 -37 5
-23 -3 -55 -5 -70 -5 -16 -1 -28 -6 -28 -12 0 -7 17 -10 45 -7 25 1 45 -1 45
-7 0 -6 -104 -10 -277 -11 -153 -1 -270 1 -259 5 25 9 -128 14 -468 15 -154 0
-274 2 -268 4 7 2 10 8 6 13 -4 7 67 14 124 12 7 -1 10 2 7 5 -10 10 -395 10
-395 0z m237 -14 c-3 -3 -12 -4 -19 -1 -8 3 -5 6 6 6 11 1 17 -2 13 -5z m1723
-318 c0 -9 -30 -14 -35 -6 -4 6 3 10 14 10 12 0 21 -2 21 -4z m-2100 -266 c0
-5 -4 -10 -9 -10 -6 0 -13 5 -16 10 -3 6 1 10 9 10 9 0 16 -4 16 -10z m897
-96 c-3 -3 -12 -4 -19 -1 -8 3 -5 6 6 6 11 1 17 -2 13 -5z m383 -110 c0 -2
-13 -4 -30 -4 -16 0 -30 4 -30 8 0 5 14 7 30 4 17 -2 30 -6 30 -8z m133 -11
c-13 -2 -33 -2 -45 0 -13 2 -3 4 22 4 25 0 35 -2 23 -4z m-113 -30 c70 -8 62
-16 -12 -11 -39 2 -73 10 -80 17 -11 11 -8 12 17 6 17 -3 50 -9 75 -12z m85
-21 c-3 -3 -11 0 -18 7 -9 10 -8 11 6 5 10 -3 15 -9 12 -12z m192 12 c-3 -3
-12 -4 -19 -1 -8 3 -5 6 6 6 11 1 17 -2 13 -5z"/>
<path d="M1543 1173 c31 -2 83 -2 115 0 31 2 5 3 -58 3 -63 0 -89 -1 -57 -3z"/>
<path d="M1743 1173 c15 -2 37 -2 50 0 12 2 0 4 -28 4 -27 0 -38 -2 -22 -4z"/>
<path d="M1888 1173 c7 -3 16 -2 19 1 4 3 -2 6 -13 5 -11 0 -14 -3 -6 -6z"/>
<path d="M1923 1174 c3 -3 54 -7 113 -9 71 -3 104 -1 94 5 -15 9 -216 13 -207
4z"/>
<path d="M1358 1163 c7 -3 16 -2 19 1 4 3 -2 6 -13 5 -11 0 -14 -3 -6 -6z"/>
<path d="M1418 1163 c6 -2 18 -2 25 0 6 3 1 5 -13 5 -14 0 -19 -2 -12 -5z"/>
<path d="M2175 1160 c4 -6 11 -8 16 -5 14 9 11 15 -7 15 -8 0 -12 -5 -9 -10z"/>
<path d="M2223 1153 c9 -2 23 -2 30 0 6 3 -1 5 -18 5 -16 0 -22 -2 -12 -5z"/>
<path d="M1670 1139 c-44 -5 -35 -6 43 -6 53 -1 97 3 97 8 0 9 -47 8 -140 -2z"/>
<path d="M1503 1133 c9 -2 23 -2 30 0 6 3 -1 5 -18 5 -16 0 -22 -2 -12 -5z"/>
<path d="M320 410 c0 -5 5 -10 11 -10 5 0 7 5 4 10 -3 6 -8 10 -11 10 -2 0 -4
-4 -4 -10z"/>
<path d="M668 303 c18 -2 45 -2 60 0 15 2 0 4 -33 4 -33 0 -45 -2 -27 -4z"/>
<path d="M520 290 c0 -5 12 -10 28 -9 24 0 25 1 7 9 -27 12 -35 12 -35 0z"/>
<path d="M869 281 c35 -9 80 -15 100 -12 34 4 33 5 -24 17 -33 7 -78 13 -100
13 -38 -1 -36 -2 24 -18z"/>
<path d="M340 286 c0 -2 7 -9 15 -16 13 -11 14 -10 9 4 -5 14 -24 23 -24 12z"/>
<path d="M605 283 c14 -15 75 -25 75 -13 0 6 -8 10 -17 10 -10 0 -29 3 -43 6
-17 5 -22 3 -15 -3z"/>
<path d="M1036 269 c3 -5 12 -9 21 -9 19 0 9 13 -12 16 -8 1 -13 -2 -9 -7z"/>
<path d="M1189 269 c-11 -7 -9 -9 6 -9 11 0 38 -3 60 -7 51 -8 43 3 -12 15
-23 5 -47 6 -54 1z"/>
<path d="M2150 270 c-18 -12 -2 -12 25 0 13 6 15 9 5 9 -8 0 -22 -4 -30 -9z"/>
<path d="M728 263 c12 -2 32 -2 45 0 12 2 2 4 -23 4 -25 0 -35 -2 -22 -4z"/>
<path d="M1503 258 c-3 -6 -1 -8 5 -4 5 3 12 1 14 -5 2 -6 11 -10 21 -8 13 3
12 6 -8 16 -17 8 -27 8 -32 1z"/>
<path d="M390 231 c0 -5 9 -16 20 -26 16 -14 17 -21 8 -32 -6 -8 -7 -13 -2
-12 21 4 34 -2 34 -16 0 -8 7 -15 16 -15 13 0 14 3 5 13 -8 11 -4 13 22 10 17
-2 26 0 20 3 -7 3 -13 12 -13 19 0 13 -21 25 -46 25 -9 0 -12 -5 -8 -12 4 -7
-2 -4 -15 6 -14 13 -18 22 -10 26 6 5 3 9 -10 13 -12 3 -21 2 -21 -2z"/>
<path d="M2115 220 c-3 -5 -1 -10 4 -10 6 0 11 5 11 10 0 6 -2 10 -4 10 -3 0
-8 -4 -11 -10z"/>
<path d="M522 202 c-16 -5 -15 -22 1 -22 7 0 28 -11 47 -25 18 -14 36 -22 39
-20 2 3 -5 12 -17 21 -12 8 -20 19 -18 22 6 10 -37 29 -52 24z"/>
<path d="M1900 186 c16 -10 41 -15 70 -12 25 2 36 1 25 -1 -11 -3 -25 -9 -32
-15 -8 -6 -19 -6 -32 2 -12 6 -21 9 -21 6 0 -3 -14 -1 -31 4 -17 5 -39 5 -52
0 -19 -7 -16 -9 16 -9 21 -1 36 -5 33 -10 -3 -5 4 -11 15 -14 30 -8 120 4 113
14 -3 5 4 9 16 9 12 0 19 4 15 9 -3 5 3 12 12 14 10 3 0 5 -22 6 -22 1 -65 4
-95 7 -53 5 -54 5 -30 -10z"/>
<path d="M630 170 c0 -6 7 -10 15 -10 8 0 15 2 15 4 0 2 -7 6 -15 10 -8 3 -15
1 -15 -4z"/>
<path d="M740 166 c0 -11 -9 -14 -37 -10 -28 3 -33 2 -18 -4 29 -13 146 -22
139 -11 -3 5 -12 9 -20 9 -8 0 -14 4 -14 9 0 5 -10 7 -22 3 -14 -3 -19 -2 -14
6 4 7 2 12 -3 12 -6 0 -11 -6 -11 -14z"/>
<path d="M1238 163 c6 -2 18 -2 25 0 6 3 1 5 -13 5 -14 0 -19 -2 -12 -5z"/>
<path d="M1645 160 c3 -5 10 -10 16 -10 5 0 9 5 9 10 0 6 -7 10 -16 10 -8 0
-12 -4 -9 -10z"/>
<path d="M1685 161 c6 -5 31 -11 57 -13 27 -2 48 -6 48 -10 0 -5 12 -8 26 -8
14 0 23 -4 19 -10 -3 -5 2 -10 11 -10 16 0 16 2 -1 20 -10 11 -20 18 -23 15
-3 -3 -10 -1 -16 4 -17 13 -133 25 -121 12z"/>
<path d="M980 150 c8 -5 26 -10 40 -10 20 0 22 2 10 10 -8 5 -26 10 -40 10
-20 0 -22 -2 -10 -10z"/>
<path d="M1418 143 c12 -2 30 -2 40 0 9 3 -1 5 -23 4 -22 0 -30 -2 -17 -4z"/>
<path d="M873 134 c3 -4 26 -8 49 -10 37 -2 39 -2 13 5 -38 11 -70 13 -62 5z"/>
<path d="M1648 133 c6 -2 18 -2 25 0 6 3 1 5 -13 5 -14 0 -19 -2 -12 -5z"/>
<path d="M1718 133 c7 -3 16 -2 19 1 4 3 -2 6 -13 5 -11 0 -14 -3 -6 -6z"/>
<path d="M1476 119 c6 -11 44 -12 44 -1 0 4 -11 8 -25 8 -14 1 -22 -2 -19 -7z"/>
<path d="M825 110 c3 -5 8 -10 11 -10 2 0 4 5 4 10 0 6 -5 10 -11 10 -5 0 -7
-4 -4 -10z"/>
<path d="M1708 103 c7 -3 16 -2 19 1 4 3 -2 6 -13 5 -11 0 -14 -3 -6 -6z"/>
</g>
</svg>
