<?xml version="1.0" standalone="no"?>
<!DOCTYPE svg PUBLIC "-//W3C//DTD SVG 20010904//EN"
 "http://www.w3.org/TR/2001/REC-SVG-20010904/DTD/svg10.dtd">
<svg version="1.0" xmlns="http://www.w3.org/2000/svg"
 width="42.000000pt" height="39.000000pt" viewBox="0 0 165.000000 153.000000"
 preserveAspectRatio="xMidYMid meet">

<g transform="translate(0.000000,153.000000) scale(0.100000,-0.100000)"
fill="#000000" stroke="none">
<path d="M823 1474 c-4 -11 -14 -14 -34 -10 -19 4 -28 2 -26 -6 1 -7 -11 -15
-28 -19 -16 -4 -24 -7 -17 -8 6 0 12 -6 12 -11 0 -5 -3 -9 -7 -8 -5 0 -17 -2
-28 -6 -11 -4 -33 -13 -50 -19 -16 -7 -34 -11 -39 -9 -4 1 -28 -14 -53 -34
-40 -33 -54 -39 -97 -43 -5 -1 -6 -4 -3 -8 11 -10 -13 -33 -35 -33 -10 0 -17
-4 -13 -9 3 -5 -4 -12 -14 -16 -23 -7 -134 -113 -150 -143 -6 -12 -17 -20 -24
-18 -6 1 -9 1 -6 -1 4 -2 -9 -35 -27 -73 -19 -37 -34 -76 -34 -85 0 -9 -4 -14
-9 -10 -6 3 -10 -3 -11 -12 -1 -46 -5 -63 -13 -63 -4 0 -5 -4 -2 -10 3 -5 -2
-10 -12 -10 -10 0 -14 -4 -8 -8 14 -10 16 -25 5 -62 -7 -26 -6 -31 5 -26 11 4
13 -8 13 -55 -1 -33 -4 -55 -8 -49 -5 7 -9 4 -13 -9 -3 -14 0 -21 9 -21 8 0
14 -7 14 -15 0 -23 1 -29 11 -47 6 -11 4 -18 -6 -21 -10 -4 -12 -1 -8 11 5 13
3 14 -7 5 -10 -9 -9 -21 6 -62 10 -28 21 -46 25 -40 4 7 9 4 13 -6 3 -9 4 -20
1 -25 -3 -4 2 -10 10 -14 8 -3 15 -10 15 -16 0 -6 -4 -8 -10 -5 -5 3 -10 0
-10 -7 0 -8 9 -14 21 -15 28 -2 51 -23 45 -40 -3 -7 -1 -13 3 -13 5 0 17 -3
27 -7 13 -5 15 -3 9 8 -5 8 -4 11 0 6 9 -7 15 -28 17 -55 1 -7 7 -11 14 -8 14
5 47 -27 38 -37 -3 -3 3 -3 15 0 12 3 21 1 21 -6 0 -6 -5 -11 -11 -11 -5 0 -7
-5 -3 -11 4 -8 11 -4 19 10 11 21 12 21 26 5 8 -9 13 -25 11 -36 -2 -10 2 -18
7 -18 6 0 11 7 11 15 0 19 8 19 62 1 50 -16 99 -29 113 -31 9 -1 51 -10 105
-22 16 -3 125 -5 150 -2 8 1 25 -1 38 -5 16 -5 22 -4 20 6 -2 8 9 14 30 16 18
2 36 10 39 18 3 8 16 14 29 14 14 0 27 7 30 15 7 18 34 20 34 3 0 -6 10 1 23
15 28 33 53 37 37 7 -15 -28 -4 -25 27 7 15 16 23 22 19 16 -4 -7 -2 -13 4
-13 7 0 14 10 17 21 6 21 6 21 21 3 13 -16 14 -17 9 -1 -4 11 -1 17 8 17 8 0
15 -4 15 -9 0 -5 14 4 30 19 17 15 30 33 30 38 0 6 9 8 20 5 19 -5 19 -3 10
22 -9 23 -8 26 5 21 10 -3 15 1 16 14 1 11 3 25 4 30 1 6 3 17 4 25 0 8 7 12
16 9 11 -5 13 -2 9 11 -4 9 -3 20 3 24 14 10 58 76 45 67 -16 -10 -16 19 1 36
6 7 13 20 14 28 3 27 12 60 19 72 4 7 3 8 -4 4 -16 -10 -15 13 3 63 8 22 12
41 8 41 -3 0 0 7 7 15 7 8 9 22 6 31 -5 13 -9 14 -21 4 -10 -9 -15 -9 -15 -1
0 6 5 11 11 11 5 0 7 5 3 12 -4 7 -3 8 4 4 6 -3 16 2 21 13 8 14 7 20 -4 24
-7 3 -16 1 -18 -6 -5 -15 -13 -8 -22 22 -4 15 -3 21 3 17 5 -3 12 0 14 7 5 14
-27 48 -37 39 -4 -4 -6 7 -3 24 3 24 1 31 -9 27 -16 -6 -17 9 -2 24 8 8 5 13
-10 18 -16 5 -21 13 -18 33 5 35 -27 122 -52 143 -11 9 -17 20 -13 24 4 4 -3
2 -15 -6 -12 -7 -19 -18 -15 -24 3 -5 -2 -4 -11 4 -9 7 -15 17 -12 21 2 4 -7
12 -20 18 -14 7 -25 18 -25 27 0 8 -5 15 -11 15 -5 0 -7 -6 -4 -12 4 -7 -7 2
-24 20 -17 17 -35 32 -41 32 -5 0 -10 7 -10 15 0 7 -8 19 -17 24 -16 9 -16 12
-3 21 13 9 13 10 0 10 -9 0 -21 -5 -27 -11 -7 -7 -12 -6 -16 5 -4 9 -1 16 6
17 7 0 1 5 -12 10 -13 5 -32 7 -42 4 -9 -3 -21 0 -25 6 -5 8 -3 10 7 4 10 -5
11 -5 4 3 -5 5 -32 12 -59 15 -26 2 -52 10 -56 17 -4 7 -15 10 -24 7 -8 -3
-18 -2 -21 3 -4 6 -1 10 6 10 19 0 1 13 -22 17 -11 2 -22 -4 -26 -13z m-662
-587 c-10 -9 -11 -8 -5 6 3 10 9 15 12 12 3 -3 0 -11 -7 -18z"/>
<path d="M998 1463 c7 -3 16 -2 19 1 4 3 -2 6 -13 5 -11 0 -14 -3 -6 -6z"/>
<path d="M141 999 c-17 -18 -31 -38 -31 -44 0 -5 5 -3 10 5 8 13 10 13 10 0 0
-8 12 3 26 23 33 50 24 59 -15 16z"/>
<path d="M91 869 c-17 -57 -7 -60 11 -4 9 25 12 45 8 45 -4 0 -12 -18 -19 -41z"/>
<path d="M90 688 c0 -9 -6 -19 -12 -21 -10 -4 -10 -6 0 -6 14 -1 28 26 18 36
-3 4 -6 -1 -6 -9z"/>
<path d="M97 546 c-4 -10 -1 -13 8 -9 8 3 12 9 9 14 -7 12 -11 11 -17 -5z"/>
<path d="M1460 459 c0 -5 5 -7 10 -4 6 3 10 8 10 11 0 2 -4 4 -10 4 -5 0 -10
-5 -10 -11z"/>
</g>
</svg>
